<svg id="Layer_1" data-name="Layer 1" xmlns="http://www.w3.org/2000/svg" viewBox="0 0 496 496"><defs><style>.cls-1{fill:#fff;}</style></defs><title>training</title><path class="cls-1" d="M392,46.18V0H104V46.18A249.94,249.94,0,0,0,65.68,80H24a24,24,0,0,0,0,48h7A247.37,247.37,0,0,0,0,248C0,384.75,111.26,496,248,496S496,384.75,496,248A248.13,248.13,0,0,0,392,46.18ZM480,248a231.67,231.67,0,0,1-8,60.31v-18.2a32.14,32.14,0,0,0-23.21-30.78L416,250V239.8A39.82,39.82,0,0,0,432,208V192a40,40,0,0,0-40-40V66.13A232.12,232.12,0,0,1,480,248ZM440,360h11.09q-5.14,9.3-11.09,18.08ZM36.88,344c-2.39-5.24-4.65-10.56-6.66-16H465.78c-2,5.44-4.27,10.76-6.66,16ZM56,378.08Q50,369.32,44.91,360H56ZM56,112V96H72v16ZM88,96H221.57l12,8-12,8H88Zm200,24h55.45A64.08,64.08,0,0,1,288,175.45Zm0-16V48.55A64.08,64.08,0,0,1,343.45,104Zm-16,56.21a39.36,39.36,0,0,0-39.3-5.14A63.8,63.8,0,0,1,218.09,128h8.34l36-24-36-24h-1.74A64,64,0,0,1,272,48.63ZM392,168a24,24,0,0,1,24,24v16a24,24,0,0,1-48,0V192A24,24,0,0,1,392,168Zm0,80a39.91,39.91,0,0,0,8-.81v5.5l-8,8-8-8v-5.5A39.91,39.91,0,0,0,392,248Zm-18.33,17L392,283.31,410.33,265l34.06,9.74A16.07,16.07,0,0,1,456,290.11V312H440V296H424v16H360V296H344v16H328V290.11a16.07,16.07,0,0,1,11.6-15.39ZM312,312H296V296H280v16H216V296H200v16H184V290.11a16.07,16.07,0,0,1,11.6-15.39L229.67,265,248,283.31,266.33,265l34.06,9.74A16.07,16.07,0,0,1,312,290.11Zm-56-59.31-8,8-8-8v-5.5a39.91,39.91,0,0,0,16,0ZM248,232a24,24,0,0,1-24-24V192a24,24,0,0,1,48,0v16A24,24,0,0,1,248,232ZM201.61,128a79.37,79.37,0,0,0,5.12,16H152v16h64V160c1.08,1.43,2.23,2.81,3.41,4.17a39.89,39.89,0,0,0-8,11.88H152v16h56v16a39.79,39.79,0,0,0,16,31.79V250l-32.79,9.36A31.71,31.71,0,0,0,176,269.13a31.71,31.71,0,0,0-15.21-9.81L128,250V239.8A39.82,39.82,0,0,0,144,208V192a40,40,0,0,0-24-36.61V128ZM128,192v16a24,24,0,0,1-48,0V192a24,24,0,0,1,48,0Zm-24,56a39.91,39.91,0,0,0,8-.81v5.5l-8,8-8-8v-5.5A39.91,39.91,0,0,0,104,248ZM85.67,265,104,283.31,122.33,265l34.06,9.74A16.07,16.07,0,0,1,168,290.11V312H152V296H136v16H72V296H56v16H40V290.11a16.07,16.07,0,0,1,11.6-15.39ZM376,16V155.39A40,40,0,0,0,352,192v16a39.79,39.79,0,0,0,16,31.79V250l-32.79,9.36A31.71,31.71,0,0,0,320,269.13a31.71,31.71,0,0,0-15.21-9.81L272,250V239.8A39.82,39.82,0,0,0,288,208V192c0-.14,0-.27,0-.4A80,80,0,1,0,206.68,80H120V16ZM104,66.14V80H88.14C93.22,75.16,98.5,70.51,104,66.14ZM16,104a8,8,0,0,1,8-8H40v16H24A8,8,0,0,1,16,104Zm33.54,24H104v24a40.05,40.05,0,0,0-40,40v16a39.79,39.79,0,0,0,16,31.79V250l-32.79,9.36A32.15,32.15,0,0,0,24,290.11v18.2A231.4,231.4,0,0,1,49.54,128ZM248,480A231.46,231.46,0,0,1,72,398.89V392H360V376H72V360H424v16H376v16h48v6.89A231.46,231.46,0,0,1,248,480Z"/><path class="cls-1" d="M136,32h16V48H136Z"/><path class="cls-1" d="M168,32h16V48H168Z"/><path class="cls-1" d="M200,32h16V48H200Z"/></svg>